<?xml version="1.0" encoding="UTF-8" standalone="no"?>
<!-- Created with Inkscape (http://www.inkscape.org/) -->

<svg
   width="73.5mm"
   height="73.5mm"
   viewBox="0 0 73.500003 73.500003"
   version="1.1"
   id="svg1"
   xml:space="preserve"
   inkscape:version="1.3.2 (091e20e, 2023-11-25, custom)"
   sodipodi:docname="qrcode.svg"
   xmlns:inkscape="http://www.inkscape.org/namespaces/inkscape"
   xmlns:sodipodi="http://sodipodi.sourceforge.net/DTD/sodipodi-0.dtd"
   xmlns="http://www.w3.org/2000/svg"
   xmlns:svg="http://www.w3.org/2000/svg"><sodipodi:namedview
     id="namedview1"
     pagecolor="#505050"
     bordercolor="#ffffff"
     borderopacity="1"
     inkscape:showpageshadow="0"
     inkscape:pageopacity="0"
     inkscape:pagecheckerboard="1"
     inkscape:deskcolor="#505050"
     inkscape:document-units="mm"
     inkscape:zoom="4.6891853"
     inkscape:cx="141.81568"
     inkscape:cy="113.13266"
     inkscape:window-width="3840"
     inkscape:window-height="2126"
     inkscape:window-x="3829"
     inkscape:window-y="-11"
     inkscape:window-maximized="1"
     inkscape:current-layer="layer1" /><defs
     id="defs1" /><g
     inkscape:label="Ebene 1"
     inkscape:groupmode="layer"
     id="layer1"
     transform="translate(-131.82983,-142.04368)"><rect
       style="fill:#ffffff;stroke:#000000;stroke-width:0.8;stroke-dasharray:none"
       id="rect1"
       width="72.699966"
       height="72.699966"
       x="132.22983"
       y="142.44368"
       ry="6.4464903" /><g
       style="stroke-width:0.162347;shape-rendering:crispEdges"
       id="g1"
       transform="matrix(1.6297444,0,0,1.6297444,138.42954,148.64338)"><rect
         id="qr background"
         fill-opacity="1"
         fill="#ffffff"
         x="-1"
         y="-1"
         width="39"
         height="39"
         style="stroke-width:0.162347" /><path
         fill-opacity="1"
         fill="#000000"
         id="qr dark pixels"
         fill-rule="evenodd"
         d="m 9,0 h 3 v 1 h 1 V 2 H 12 V 4 H 11 V 7 H 10 V 6 H 9 V 5 h 1 V 3 H 9 V 2 h 2 V 1 H 9 Z m 4,0 h 2 v 1 h -2 z m 4,0 h 2 v 1 h -2 z m 4,0 h 3 V 1 H 23 V 2 H 22 V 1 h -1 z m 5,0 h 1 v 3 h 1 V 1 h 1 V 7 H 28 V 4 h -2 v 1 h 1 v 2 h 1 v 4 h 1 V 9 h 1 v 1 h 1 v 2 h 1 v 3 h 1 v 1 h 1 v -2 h -1 v -2 h 1 v 1 h 1 v -2 h 1 v 1 h 1 v 1 h -1 v 1 h 1 v 3 h -1 v -2 h -1 v 2 h 1 v 1 h -3 v -1 h -1 v 1 h 1 v 1 h 1 v 1 h -1 v 2 h -2 v -1 h 1 v -2 h -1 v 2 h -1 v 1 h -1 v -2 h -2 v -1 h -1 v -1 h 1 v -1 h -2 v -1 h 4 v -1 h 1 v 1 h 1 v -1 h -1 v -1 h 1 v -1 h -1 v -1 h -1 v 1 H 28 V 12 H 27 V 9 H 26 V 6 H 25 V 3 h 1 z m 3,17 h 2 v 1 h -1 v 1 H 29 Z M 16,1 h 1 v 2 h 1 V 4 H 15 V 3 h 1 z m -2,1 h 1 v 1 h -1 z m 4,0 h 4 v 1 h -1 v 1 h 2 V 5 H 21 V 7 H 20 V 5 H 19 V 3 H 18 Z M 8,3 H 9 V 5 H 8 Z m 5,0 h 1 v 1 h -1 z m -1,1 h 1 v 1 h -1 z m 2,0 h 1 v 1 h -1 z m 2,1 h 3 V 8 H 18 V 6 H 17 V 8 H 16 Z M 8,6 H 9 V 7 H 8 Z m 4,0 h 1 v 2 h 3 v 2 h 1 V 8 h 1 v 1 h 2 v 1 h -2 v 1 h -2 v 2 h 4 v 1 h -1 v 1 h -1 v -1 h -1 v 2 h -1 v -1 h -2 v -1 h 1 v -1 h -1 v -1 h 1 V 9 h -3 z m 2,0 h 1 v 1 h -1 z m 8,0 h 1 v 1 h -1 z m 2,0 h 1 V 7 H 24 Z M 9,7 h 1 v 1 h 1 v 2 h 2 v 1 h -1 v 1 H 10 V 10 H 9 Z m 14,0 h 1 v 1 h 1 v 2 H 23 V 9 H 21 V 8 h 2 z M 0,8 h 2 v 1 h 2 v 1 H 1 v 4 H 0 Z m 5,0 h 3 v 2 H 7 V 9 H 5 Z m 27,0 h 2 v 1 h -1 v 1 h 2 v 1 H 32 V 10 H 31 V 9 h 1 z m 3,1 h 1 v 1 H 35 Z M 4,10 h 3 v 1 H 6 v 1 h 1 v -1 h 1 v 4 H 6 V 14 H 7 V 13 H 5 V 12 H 2 v -1 h 2 z m 16,0 h 3 v 1 h -2 v 2 h -1 v -1 h -1 v -1 h 1 z m 5,0 h 1 v 1 h -1 z m 11,0 h 1 v 1 h -1 z m -13,1 h 2 v 1 h -1 v 2 h -1 z m -11,1 h 1 v 1 h 1 v 1 H 12 Z M 2,13 h 1 v 1 H 2 Z m 8,0 h 1 v 2 h -1 z m 11,0 h 1 v 1 h -1 z m 4,0 h 1 v 1 h 1 v -1 h 1 v 2 h -3 z m 4,0 h 1 v 1 H 29 Z M 1,14 h 1 v 1 h 1 v 1 H 2 v 2 H 1 v 1 H 0 v -4 h 1 z m 21,0 h 1 v 1 H 22 Z M 5,15 h 1 v 1 H 5 Z m 4,0 h 1 v 1 H 9 Z m 2,0 h 2 v 1 h 3 v 1 h 1 v 1 h -1 v 1 h -2 v -2 h -2 v 1 h 1 v 2 h -1 v -1 h -1 v 2 H 10 V 19 H 9 v -1 h 1 v -1 h 1 z m 8,0 h 1 v 2 h 1 v 1 h -1 v 1 h -1 v -1 h -1 v -1 h 1 z M 3,16 h 2 v 1 H 3 Z m 3,0 h 2 v 1 h 1 v 1 H 7 V 17 H 6 Z m 11,0 h 1 v 1 h -1 z m 5,0 h 1 v 1 h 1 v 2 H 23 V 18 H 22 Z M 5,17 h 1 v 1 h 1 v 1 H 6 v 1 h 1 v 1 H 5 v 1 H 4 v 1 h 1 v -1 h 2 v 1 H 6 v 1 h 2 v 1 H 4 V 24 H 3 v 1 H 1 v 4 H 0 V 24 H 1 V 21 H 0 v -1 h 1 v -1 h 1 v 4 h 1 v -5 h 1 v 1 h 1 z m 12,1 h 1 v 1 h -1 z m 4,0 h 1 v 1 h -1 z m 15,0 h 1 v 3 h -1 v 1 h 1 v 3 h -1 v -2 h -2 v 2 h -1 v -3 h 1 v -2 h 2 z M 7,19 h 1 v 1 H 7 Z m 9,0 h 1 v 1 h -1 z m 2,0 h 1 v 1 h 1 v 2 h -2 v 1 h -1 v -3 h 1 z m 4,0 h 1 v 1 h 1 v -1 h 1 v 1 h 2 v 1 h 1 v 1 h 1 v 4 h -1 v 1 h -1 v -1 h -1 v -1 h 1 v -1 h 1 v -1 h -1 v 1 h -1 v -3 h -2 v 1 h -2 z m -9,1 h 3 v 3 h -1 v 1 h -1 v -3 h -1 z m -4,1 h 1 v 1 H 9 Z m 2,0 h 1 v 1 h -1 z m -3,1 h 1 v 1 H 8 Z m 12,0 h 1 v 1 h -1 z m 4,0 h 1 v 2 h -1 v 2 h -1 v -2 h -1 v -1 h 2 z m 6,0 h 1 v 1 H 30 Z M 9,23 h 1 v 1 H 9 Z m 3,0 h 1 v 2 h -1 v 1 h -1 v -1 h -1 v -1 h 2 z m 4,0 h 1 v 4 h -2 v 1 h 1 v 1 h 1 v 1 h 2 v -2 h 1 v 1 h 1 v 1 h -1 v 1 h 1 v 1 h -1 v 1 h 1 v 1 h -2 v -2 h -1 v -1 h -2 v 1 h 2 v 1 h -2 v 1 h 1 v 3 h -1 v -1 h -2 v -1 h 1 v -1 h -1 v -1 h -2 v -1 h 2 v -1 h 1 v -2 h -2 v 1 h -1 v 1 h -1 v 2 H 10 V 32 H 8 V 29 H 5 v -1 h 3 v -1 h 1 v 1 h 1 v 1 H 9 v 2 h 1 v -2 h 1 v -2 h 1 v 1 h 2 v -2 h 1 v -1 h 1 z m 15,0 h 1 v 1 h -1 z m -12,1 h 2 v 1 h 1 v 2 h -2 v -1 h -1 v 1 h -1 v -2 h 1 z m 11,0 h 1 v 1 H 30 Z M 3,25 h 1 v 1 H 3 Z m 5,0 h 2 v 1 H 8 Z m 5,0 h 1 v 1 h -1 z m 18,0 h 1 v 2 h -2 v -1 h 1 z m 4,0 h 1 v 1 h 1 v 2 H 36 V 27 H 35 Z M 4,26 h 1 v 1 H 4 Z m 2,0 h 1 v 1 H 6 Z m 6,0 h 1 v 1 h -1 z m 13,0 h 1 v 1 H 25 Z M 2,27 h 2 v 1 H 3 v 1 H 2 Z m 20,0 h 1 v 2 h 1 v 2 h -3 v -1 h 1 z m 4,0 h 1 v 1 h 2 v -1 h 1 v 1 h 3 v 1 h 1 v 1 h -1 v 2 h 2 v -1 h 1 v -1 h 1 v 3 h -3 v 1 h 3 v 3 h -1 v -2 h -2 v 2 h -2 v -1 h -1 v -2 h 1 v 1 h 1 v -2 h -2 v 1 h -2 v -1 h -2 v 2 h -1 v -3 h 1 v -1 h 1 v -1 h -2 v -1 h -2 v -1 h 2 z m 3,2 h 3 v 3 h -3 z m 4,-2 h 2 v 2 h -1 v -1 h -1 z m -16,1 h 1 v 1 h -1 z m -4,2 h 1 v 1 h -1 z m 12,0 h 1 v 1 h -1 z m 5,0 h 1 v 1 h -1 z m -8,2 h 3 v 1 h -1 v 1 h -2 z m -11,1 h 1 v 1 h -1 z m -2,1 h 2 v 1 H 9 Z m 9,0 h 1 v 2 h 1 v -1 h 1 v 2 h -3 z m 3,0 h 1 v 1 h -1 z m 7,0 h 1 v 1 h 1 v 1 h -1 v 1 H 28 Z M 8,35 h 1 v 2 H 8 Z m 3,0 h 2 v 1 h -1 v 1 h -2 v -1 h 1 z m 11,0 h 1 v 1 h -1 z m 2,0 h 1 v 2 h -2 v -1 h 1 z"
         style="stroke-width:0.162347" /><path
         id="qr squares"
         d="M 0,0 H 7 V 0 0 7 7 7 H 0 V 7 7 Z M 1,1 H 6 V 1 1 6 6 6 H 1 V 6 6 Z M 2,2 H 5 V 2 2 5 5 5 H 2 V 5 5 Z M 30,0 h 7 v 0 0 7 0 0 h -7 v 0 0 z m 1,1 h 5 v 0 0 5 0 0 h -5 v 0 0 z m 1,1 h 3 V 2 2 5 5 5 H 32 V 5 5 Z M 0,30 h 7 v 0 0 7 0 0 H 0 v 0 0 z m 1,1 h 5 v 0 0 5 0 0 H 1 v 0 0 z m 1,1 h 3 v 0 0 3 0 0 H 2 v 0 0 z"
         fill-rule="evenodd"
         fill-opacity="1"
         fill="#000000"
         style="stroke-width:0.162347" /></g></g></svg>
