<?xml version="1.0" encoding="UTF-8" standalone="no"?>
<!-- Created with Inkscape (http://www.inkscape.org/) -->

<svg
   width="73.5mm"
   height="73.5mm"
   viewBox="0 0 73.5 73.5"
   version="1.1"
   id="svg1"
   xml:space="preserve"
   inkscape:version="1.3.2 (091e20e, 2023-11-25, custom)"
   sodipodi:docname="applogo.svg"
   xmlns:inkscape="http://www.inkscape.org/namespaces/inkscape"
   xmlns:sodipodi="http://sodipodi.sourceforge.net/DTD/sodipodi-0.dtd"
   xmlns:xlink="http://www.w3.org/1999/xlink"
   xmlns="http://www.w3.org/2000/svg"
   xmlns:svg="http://www.w3.org/2000/svg"><sodipodi:namedview
     id="namedview1"
     pagecolor="#505050"
     bordercolor="#ffffff"
     borderopacity="1"
     inkscape:showpageshadow="0"
     inkscape:pageopacity="0"
     inkscape:pagecheckerboard="1"
     inkscape:deskcolor="#505050"
     inkscape:document-units="mm"
     inkscape:zoom="4.6891854"
     inkscape:cx="176.25663"
     inkscape:cy="154.29119"
     inkscape:window-width="3840"
     inkscape:window-height="2126"
     inkscape:window-x="3829"
     inkscape:window-y="-11"
     inkscape:window-maximized="1"
     inkscape:current-layer="layer1" /><defs
     id="defs1"><linearGradient
       id="linearGradient13"
       inkscape:collect="always"><stop
         style="stop-color:#00b1d2;stop-opacity:1;"
         offset="0"
         id="stop13" /><stop
         style="stop-color:#19c936;stop-opacity:1;"
         offset="1"
         id="stop14" /></linearGradient><linearGradient
       id="linearGradient5"
       inkscape:collect="always"><stop
         style="stop-color:#1077c5;stop-opacity:1;"
         offset="0"
         id="stop5" /><stop
         style="stop-color:#4df067;stop-opacity:1;"
         offset="1"
         id="stop6" /></linearGradient><linearGradient
       inkscape:collect="always"
       xlink:href="#linearGradient5"
       id="linearGradient6"
       x1="112.94531"
       y1="75.695312"
       x2="39.945312"
       y2="148.69531"
       gradientUnits="userSpaceOnUse" /><linearGradient
       inkscape:collect="always"
       xlink:href="#linearGradient13"
       id="linearGradient12"
       x1="51.871094"
       y1="137.05428"
       x2="101.01953"
       y2="87.623047"
       gradientUnits="userSpaceOnUse" /><linearGradient
       inkscape:collect="always"
       xlink:href="#linearGradient13"
       id="linearGradient14"
       gradientUnits="userSpaceOnUse"
       x1="51.871094"
       y1="137.05428"
       x2="101.01953"
       y2="87.623047" /><linearGradient
       inkscape:collect="always"
       xlink:href="#linearGradient13"
       id="linearGradient15"
       gradientUnits="userSpaceOnUse"
       x1="51.871094"
       y1="137.05428"
       x2="101.01953"
       y2="87.623047" /></defs><g
     inkscape:label="Ebene 1"
     inkscape:groupmode="layer"
     id="layer1"
     transform="translate(-39.695312,-75.445312)"><path
       style="color:#000000;display:inline;fill:#1a1a1a;stroke:#1a1a1a;-inkscape-stroke:none"
       d="M 54.580078,84.195312 H 98.3125 c 3.46746,0 6.13281,2.665354 6.13281,6.132813 v 43.732425 c 0,3.46746 -2.66535,6.13476 -6.13281,6.13476 H 54.580078 c -3.467459,0 -6.134766,-2.6673 -6.134766,-6.13476 V 90.328125 c 0,-3.467459 2.667307,-6.132813 6.134766,-6.132813 z"
       id="path5"
       sodipodi:nodetypes="sssssssss" /><g
       id="path1"
       style="fill:url(#linearGradient12);fill-opacity:1"><path
         style="color:#000000;fill:url(#linearGradient14);fill-opacity:1;-inkscape-stroke:none"
         d="m 68.518922,89.122301 c -5.501258,0 -10.665814,1.442447 -15.146879,3.959965 v 2.302185 c 4.407483,-2.70247 9.593,-4.262272 15.146879,-4.262272 16.028054,0 28.99978,12.971711 28.99978,28.999781 0,5.55362 -1.559514,10.73901 -4.261755,15.14636 h 2.301668 c 2.517381,-4.48097 3.959965,-9.64527 3.959965,-15.14636 0,-17.10893 -13.890727,-30.999659 -30.999658,-30.999659 z m 0,9.99991 c -5.950192,0 -11.32334,2.487139 -15.146879,6.471949 v 3.05046 c 3.467567,-4.57168 8.957184,-7.52254 15.146879,-7.52254 10.505224,0 18.999874,8.49465 18.999874,18.99988 0,6.18953 -2.950546,11.67893 -7.522022,15.14636 h 3.05046 c 3.984504,-3.82351 6.47144,-9.19643 6.47144,-15.14636 0,-11.58611 -9.413653,-20.999749 -20.999752,-20.999749 z m 0,9.999899 c -6.06327,0 -11.000362,4.93657 -11.000362,10.99985 0,6.06326 4.937092,11.00036 11.000362,11.00036 6.063269,0 10.999844,-4.9371 10.999844,-11.00036 0,-6.06328 -4.936576,-10.99985 -10.999844,-10.99985 z m 0,1.99988 c 4.982392,0 8.999967,4.01757 8.999967,8.99997 0,4.98238 -4.017575,8.99997 -8.999967,8.99997 -4.982393,0 -8.999967,-4.01759 -8.999967,-8.99997 0,-4.9824 4.017574,-8.99997 8.999967,-8.99997 z"
         id="path10" /><path
         style="color:#000000;fill:url(#linearGradient15);fill-opacity:1;-inkscape-stroke:none"
         d="m 68.519531,87.623047 c -5.763455,0 -11.185982,1.513606 -15.882812,4.152344 l -0.765625,0.429687 v 5.859375 l 2.285156,-1.400391 c 4.17979,-2.562858 9.090257,-4.041015 14.363281,-4.041015 15.218726,0 27.5,12.279303 27.5,27.498043 0,5.27281 -1.478392,10.18365 -4.041015,14.36328 l -1.400391,2.28321 h 5.857422 l 0.43164,-0.76367 c 2.638571,-4.69669 4.152343,-10.1195 4.152343,-15.88282 0,-17.92081 -14.579186,-32.498043 -32.499999,-32.498043 z m 0,10 c -6.368178,0 -12.136756,2.665263 -16.230469,6.931643 l -0.417968,0.43554 v 8.11329 l 2.695312,-3.55274 c 3.194729,-4.21197 8.240174,-6.92773 13.953125,-6.92773 9.696603,0 17.5,7.80143 17.5,17.49804 0,5.71283 -2.717939,10.7566 -6.929687,13.95118 l -3.552735,2.69531 h 8.113282 l 0.435546,-0.41602 c 4.266048,-4.09368 6.933594,-9.86257 6.933594,-16.23047 0,-12.39859 -10.101419,-22.498043 -22.5,-22.498043 z m 0,10.000003 c -6.877439,0 -12.5,5.62051 -12.5,12.49804 0,6.87752 5.622474,12.50196 12.5,12.50196 6.877526,0 12.5,-5.62452 12.5,-12.50196 0,-6.87745 -5.622562,-12.49804 -12.5,-12.49804 z m 0,4.99804 c 4.176034,0 7.5,3.32396 7.5,7.5 0,4.17602 -3.32397,7.5 -7.5,7.5 -4.176031,0 -7.5,-3.32398 -7.5,-7.5 0,-4.17604 3.323965,-7.5 7.5,-7.5 z"
         id="path11" /></g><path
       style="color:#000000;display:inline;fill:url(#linearGradient6);fill-opacity:1;stroke:#1a1a1a;stroke-width:1.5;stroke-dasharray:none"
       d="m 54.580078,76.195312 c -7.761077,0 -14.134766,6.371736 -14.134766,14.132813 v 43.732425 c 0,7.76107 6.373689,14.13476 14.134766,14.13476 H 98.3125 c 7.76108,0 14.13281,-6.37369 14.13281,-14.13476 V 90.328125 c 0,-7.761077 -6.37173,-14.132813 -14.13281,-14.132813 z m 0,8 H 98.3125 c 3.46746,0 6.13281,2.665354 6.13281,6.132813 v 43.732425 c 0,3.46746 -2.66535,6.13476 -6.13281,6.13476 H 54.580078 c -3.467459,0 -6.134766,-2.6673 -6.134766,-6.13476 V 90.328125 c 0,-3.467459 2.667307,-6.132813 6.134766,-6.132813 z"
       id="rect4" /></g></svg>
